<?xml version="1.0" standalone="no"?>
<!DOCTYPE svg PUBLIC "-//W3C//DTD SVG 20010904//EN"
 "http://www.w3.org/TR/2001/REC-SVG-20010904/DTD/svg10.dtd">
<svg version="1.0" xmlns="http://www.w3.org/2000/svg"
 width="192.000000pt" height="192.000000pt" viewBox="0 0 192.000000 192.000000"
 preserveAspectRatio="xMidYMid meet">
<metadata>
Created by potrace 1.11, written by Peter Selinger 2001-2013
</metadata>
<g transform="translate(0.000000,192.000000) scale(0.100000,-0.100000)"
fill="#000000" stroke="none">
<path d="M1051 1571 c-6 -10 -46 -39 -89 -64 -107 -62 -137 -90 -157 -142 -31
-79 2 -151 89 -198 l41 -22 -60 -3 c-70 -3 -85 -17 -85 -74 0 -26 -4 -38 -14
-38 -8 0 -16 -6 -19 -14 -8 -20 -119 -55 -124 -40 -5 16 -53 -7 -53 -25 0 -8
-8 -20 -18 -28 -16 -13 -15 -14 5 -10 13 3 25 1 28 -3 6 -9 55 11 55 23 0 14
94 48 117 42 23 -5 24 -8 21 -113 -3 -102 -4 -107 -25 -110 -13 -2 -23 2 -23
9 0 9 -4 8 -15 -1 -12 -10 -18 -10 -30 0 -12 10 -15 10 -15 -4 0 -8 -17 -24
-38 -35 -50 -25 -65 -45 -66 -84 -1 -18 -5 -37 -9 -43 -7 -12 32 -44 52 -44
21 0 121 -49 121 -59 0 -6 10 -10 22 -8 20 2 23 -4 28 -45 3 -26 9 -50 13 -54
7 -7 270 -63 300 -64 15 0 17 11 17 98 1 67 4 92 10 80 11 -19 50 -13 50 7 0
15 94 50 109 41 5 -4 12 -2 16 4 4 6 11 8 16 4 9 -5 38 22 39 36 0 3 -11 10
-25 17 -16 7 -25 8 -25 1 0 -6 -9 -8 -21 -5 -15 4 -19 2 -15 -8 6 -17 -9 -29
-57 -45 -30 -9 -41 -9 -52 0 -11 9 -15 9 -15 1 0 -6 -7 -11 -15 -11 -12 0 -15
19 -15 115 0 111 7 136 29 98 9 -17 10 -17 17 0 5 14 13 17 30 13 15 -4 23 -2
22 5 -2 6 15 17 36 25 50 18 63 29 84 73 18 36 11 76 -13 76 -25 1 -115 61
-110 74 4 9 0 11 -12 7 -9 -4 -20 -1 -24 6 -7 10 -11 10 -21 0 -26 -26 -37
-13 -40 46 l-3 57 -67 3 c-66 3 -68 4 -68 30 0 35 21 65 92 134 83 80 97 153
47 234 -29 47 -55 60 -68 35z m29 -89 c0 -26 -11 -57 -36 -98 -60 -98 -84
-152 -84 -184 0 -42 -26 -37 -57 9 -49 72 -17 152 97 245 33 28 60 53 60 58 0
4 5 8 10 8 6 0 10 -17 10 -38z m-22 -554 l3 -148 -51 0 c-28 0 -50 5 -50 11 0
6 -5 7 -12 2 -7 -4 -21 -6 -30 -5 -11 2 -18 -3 -18 -12 0 -9 -9 -16 -20 -16
-19 0 -20 7 -20 160 l0 161 98 -3 97 -3 3 -147z m88 48 c3 -8 12 -12 21 -9 8
3 19 0 24 -8 8 -12 10 -12 18 1 9 12 15 12 46 -3 20 -9 35 -23 34 -30 -4 -30
2 -58 11 -52 6 3 10 -1 10 -10 0 -8 -15 -24 -32 -35 -36 -22 -78 -26 -78 -9 0
8 -4 8 -15 -1 -8 -6 -19 -9 -25 -5 -5 3 -13 -1 -16 -9 -3 -9 -10 -13 -15 -10
-13 8 -12 194 1 194 6 0 13 -6 16 -14z m-86 -400 c0 -102 -4 -187 -8 -190 -6
-4 -86 10 -169 29 -23 5 -23 8 -23 165 0 131 3 160 14 160 8 0 16 -6 19 -12 3
-10 7 -10 20 1 9 7 23 11 31 8 8 -3 20 1 26 9 7 8 30 14 51 14 l39 0 0 -184z
m-274 -44 c-3 -3 -12 0 -20 7 -11 9 -15 9 -18 -1 -4 -10 -17 -7 -56 11 -28 13
-51 27 -50 30 3 15 -15 41 -28 41 -34 0 -1 61 46 85 18 9 40 12 59 9 19 -4 31
-2 31 4 0 6 8 12 18 14 15 3 17 -8 20 -96 1 -54 0 -101 -2 -104z"/>
</g>
</svg>
