<?xml version="1.0" encoding="utf-8"?>
<!-- Generator: Adobe Illustrator 15.0.2, SVG Export Plug-In . SVG Version: 6.00 Build 0)  -->
<!DOCTYPE svg PUBLIC "-//W3C//DTD SVG 1.1//EN" "http://www.w3.org/Graphics/SVG/1.1/DTD/svg11.dtd">
<svg version="1.1" id="Layer_1" xmlns="http://www.w3.org/2000/svg" xmlns:xlink="http://www.w3.org/1999/xlink" x="0px" y="0px"
	 width="287.999px" height="287.999px" viewBox="162.401 173.201 287.999 287.999"
	 enable-background="new 162.401 173.201 287.999 287.999" xml:space="preserve">
<path d="M204.577,215.377c-56.235,56.235-56.234,147.411,0,203.646s147.412,56.235,203.647,0
	c56.234-56.235,56.234-147.412,0-203.646C351.988,159.142,260.811,159.143,204.577,215.377z M387.858,398.659
	c-44.988,44.983-117.929,44.984-162.917,0c-44.989-44.988-44.988-117.93,0-162.917c44.989-44.989,117.929-44.988,162.918-0.001
	C432.848,280.73,432.848,353.67,387.858,398.659z"/>
<path d="M292,389.2c-3.421,0-6.757-1.22-9.384-3.479l-50.4-43.312c-6.032-5.183-6.72-14.275-1.537-20.307
	c5.183-6.032,14.275-6.72,20.306-1.537l38.06,32.704l62.975-94.462c4.41-6.616,13.35-8.406,19.969-3.994
	c6.616,4.412,8.405,13.352,3.99,19.97l-72,108c-2.288,3.432-5.937,5.717-10.022,6.279C293.306,389.155,292.65,389.2,292,389.2z"/>
<text transform="matrix(1 0 0 1 61.2002 645.5996)" font-family="'HelveticaNeue-Bold'" font-size="4">Created by Jamison Wieser</text>
<text transform="matrix(1 0 0 1 61.2002 649.5996)" font-family="'HelveticaNeue-Bold'" font-size="4">from the Noun Project</text>
</svg>
